<svg width="12" height="8" viewBox="0 0 12 8" fill="none" xmlns="http://www.w3.org/2000/svg">
<path d="M5.99995 7.33335C5.89028 7.33398 5.78156 7.31296 5.68003 7.27149C5.5785 7.23002 5.48615 7.16891 5.40828 7.09168L0.408284 2.09168C0.251365 1.93476 0.163208 1.72193 0.163208 1.50001C0.163208 1.27809 0.251365 1.06527 0.408284 0.908345C0.565204 0.751426 0.778033 0.663269 0.999951 0.663269C1.22187 0.663269 1.4347 0.751426 1.59162 0.908345L5.99995 5.32501L10.4083 0.916679C10.5677 0.780157 10.7728 0.708818 10.9825 0.716919C11.1922 0.72502 11.3912 0.811964 11.5396 0.960376C11.688 1.10879 11.7749 1.30774 11.783 1.51747C11.7911 1.7272 11.7198 1.93226 11.5833 2.09168L6.58328 7.09168C6.42807 7.24563 6.21857 7.33243 5.99995 7.33335Z" fill="#111"/>
</svg>
